<svg width="1232" height="203" xmlns="http://www.w3.org/2000/svg" xmlns:xlink="http://www.w3.org/1999/xlink" xml:space="preserve" overflow="hidden"><defs><clipPath id="clip0"><path d="M673.447 271.674C670.531 271.674 668.168 274.037 668.168 276.951L668.168 298.057C668.168 300.971 670.531 303.333 673.447 303.333L770.584 303.333C773.5 303.333 775.863 300.971 775.863 298.057L775.863 276.951C775.863 274.037 773.5 271.674 770.584 271.674ZM123.354 264.122C120.775 264.122 118.686 266.211 118.686 268.788L118.686 291.115C118.686 293.692 120.775 295.781 123.354 295.781L142.025 295.781C144.603 295.781 146.693 293.692 146.693 291.115L146.693 268.788C146.693 266.211 144.603 264.122 142.025 264.122ZM49 202 1280 202 1280 404 49 404Z" fill-rule="evenodd" clip-rule="evenodd"/></clipPath></defs><g transform="translate(-48 -201)"><g><g clip-path="url(#clip0)"><g><g><path d="M995.947 502.874 1034.36 502.874 1030.91 514.696C1018.48 545.91 991.471 568.979 958.954 574.258L952.421 574.782 952.421 537.692 958.931 536.787C972.57 532.917 984.231 523.616 991.903 511.097ZM933.364 377.83 933.364 414.516 933.235 414.53C907.301 420.381 887.79 445.683 887.79 476.008 887.79 506.336 907.301 531.636 933.235 537.485L934.007 537.573 934.007 574.254 925.853 573.382C883.222 564.113 851.155 524.039 851.155 476.008 851.155 427.977 883.222 387.902 925.853 378.634ZM951.783 377.373 963.558 378.634C995.534 385.585 1021.56 409.865 1032.58 441.834L1034.79 450.524 996.512 450.524 994.079 444.772C986.086 429.441 972.387 418.187 956.176 414.53L951.783 414.041Z" fill="#7F7F7F" fill-rule="evenodd" fill-opacity="1" transform="matrix(1.00014 0 0 1 -403.27 -172.159)"/><path d="M670.153 534.221 803.988 534.221C807.22 534.221 809.836 536.838 809.836 540.07L809.836 562.969C809.836 566.197 807.22 568.814 803.988 568.814L670.153 568.814C666.921 568.814 664.305 566.197 664.305 562.969L664.305 540.07C664.305 536.838 666.921 534.221 670.153 534.221ZM670.153 457.454 793.029 457.454C796.261 457.454 798.883 460.069 798.883 463.301L798.883 486.2C798.883 489.428 796.261 492.044 793.029 492.044L670.153 492.044C666.921 492.044 664.305 489.428 664.305 486.2L664.305 463.301C664.305 460.069 666.921 457.454 670.153 457.454ZM670.153 382.423 803.988 382.423C807.22 382.423 809.836 385.04 809.836 388.269L809.836 411.167C809.836 414.396 807.22 417.013 803.988 417.013L670.153 417.013C666.921 417.013 664.305 414.396 664.305 411.167L664.305 388.269C664.305 385.04 666.921 382.423 670.153 382.423Z" fill="#7F7F7F" fill-rule="evenodd" fill-opacity="1" transform="matrix(1.00014 0 0 1 -403.27 -172.159)"/><path d="M1645.58 476.27 1661.13 494.767 1682.11 477.096 1680.33 495.878C1673.79 529.846 1650.96 557.506 1620.88 569.208L1606.78 573.262 1588.54 555.95 1608.87 534.501 1617.05 530.287C1630.95 521.472 1641.15 506.368 1644.46 488.496ZM1514.25 466.804 1532.84 486.462 1533.02 488.496C1538.33 517.092 1561.26 538.601 1588.74 538.601 1592.18 538.601 1595.54 538.266 1598.81 537.623L1603.38 536.26 1584.31 556.391 1602.78 573.923 1588.74 575.241C1543.57 575.241 1505.87 541.172 1497.16 495.878L1496.04 484.056ZM1573.84 378.052 1592.45 395.488 1573.63 415.621 1566.61 418.026C1546.19 427.552 1531.87 449.854 1531.87 475.848L1532.43 481.995 1514.04 462.548 1495.65 479.97 1495.26 475.848C1495.26 427.816 1527.3 387.742 1569.9 378.474ZM1588.74 376.455C1633.92 376.455 1671.61 410.525 1680.33 455.816L1681.96 472.992 1661.17 490.502 1645.23 471.541 1644.46 463.2C1639.16 434.605 1616.23 413.094 1588.74 413.094L1578.74 414.207 1596.69 395.019 1578.08 377.597Z" fill="#009B91" fill-rule="evenodd" fill-opacity="1" transform="matrix(1.00014 0 0 1 -403.27 -172.159)"/><path d="M458.954 383.8 560.619 383.8 560.706 383.837 560.752 383.837 570.081 386.448C594.155 395.63 611.05 417.128 611.05 442.183 611.05 463.062 599.316 481.472 581.475 492.343L574.318 495.846 574.318 497.361 574.001 498.127 607.299 546.64C609.126 549.302 608.456 552.943 605.803 554.779L586.994 567.781C584.34 569.612 580.709 568.942 578.882 566.279L535.672 503.324 487.628 503.324 487.628 562.235C487.628 565.467 485.016 568.088 481.793 568.088L458.954 568.088C455.734 568.088 453.123 565.467 453.123 562.235L453.123 473.897C453.123 470.665 455.734 468.043 458.954 468.043L466.932 468.043 481.793 468.043 483.551 468.043 483.51 467.979 541.057 467.979 541.057 466.941 543.968 467.405C561.606 467.405 575.907 456.112 575.907 442.183 575.907 431.736 567.863 422.773 556.4 418.945L553.149 418.427 534.781 418.427 482.284 418.427 458.954 418.427C455.734 418.427 453.123 415.807 453.123 412.574L453.123 389.652C453.123 386.42 455.734 383.8 458.954 383.8Z" fill="#7F7F7F" fill-rule="evenodd" fill-opacity="1" transform="matrix(1.00014 0 0 1 -403.27 -172.159)"/><path d="M1087.01 382.423 1185.24 382.423 1186.78 383.059 1188.13 383.188C1218.79 389.11 1241.84 414.719 1241.84 445.412 1241.84 480.489 1211.72 508.925 1174.57 508.925L1173.88 508.843 1173.68 508.925 1120.15 508.925 1120.15 563.429C1120.15 566.656 1117.52 569.273 1114.3 569.273L1091.39 569.273C1088.16 569.273 1085.55 566.656 1085.55 563.429L1085.55 482.275 1086.15 480.806 1086.15 480.191C1086.15 476.959 1088.77 474.342 1092 474.342L1173.68 474.342 1176.3 475.425 1181.41 474.966C1196.86 472.152 1208.48 459.991 1208.48 445.412 1208.48 432.917 1199.94 422.195 1187.77 417.616L1185.37 416.953 1185.24 417.006 1163.59 417.006 1163.58 417.007 1114.71 417.007 1114.71 417.006 1087.01 417.006C1083.78 417.006 1081.16 414.389 1081.16 411.161L1081.16 388.267C1081.16 385.04 1083.78 382.423 1087.01 382.423Z" fill="#009B91" fill-rule="evenodd" fill-opacity="1" transform="matrix(1.00014 0 0 1 -403.27 -172.159)"/><path d="M1376.94 382.423 1384.62 382.423 1386.35 382.574 1391.45 382.574 1392.82 383.142 1394.35 383.276C1426 388.904 1449.81 413.242 1449.81 442.414 1449.81 461.166 1439.97 477.923 1424.53 488.992L1408.17 497.622 1439.73 547.728C1441.44 550.459 1440.62 554.063 1437.89 555.78L1418.49 567.955C1415.75 569.672 1412.14 568.85 1410.41 566.119L1370.52 502.778 1323.26 502.778 1323.26 563.433C1323.26 566.656 1320.64 569.273 1317.41 569.273L1294.49 569.273C1291.26 569.273 1288.64 566.656 1288.64 563.433L1288.64 482.348 1288.9 481.72 1288.9 474.062C1288.9 470.839 1291.52 468.222 1294.75 468.222L1317.8 468.222 1317.75 468.144 1384.08 468.144 1384.08 467.029 1393.66 465.605C1405.93 461.781 1414.55 452.839 1414.55 442.414 1414.55 431.988 1405.93 423.044 1393.66 419.223L1384.08 417.798 1384.08 417.504 1382.09 417.504 1380.35 417.245 1378.61 417.504 1317.24 417.504 1317.47 417.13 1293.14 417.13C1289.91 417.13 1287.29 414.515 1287.29 411.289L1287.29 388.415C1287.29 385.189 1289.91 382.574 1293.14 382.574L1375.56 382.574Z" fill="#009B91" fill-rule="evenodd" fill-opacity="1" transform="matrix(1.00014 0 0 1 -403.27 -172.159)"/></g></g></g></g></g></svg>